<mxfile host="Electron" agent="Mozilla/5.0 (Windows NT 10.0; Win64; x64) AppleWebKit/537.36 (KHTML, like Gecko) draw.io/24.7.17 Chrome/128.0.6613.36 Electron/32.0.1 Safari/537.36" version="24.7.17">
  <diagram name="Page-1" id="Cfi4N72ijaK6iqQVs6Sv">
    <mxGraphModel dx="1235" dy="1831" grid="1" gridSize="10" guides="1" tooltips="1" connect="1" arrows="1" fold="1" page="1" pageScale="1" pageWidth="850" pageHeight="1100" math="0" shadow="0">
      <root>
        <mxCell id="0" />
        <mxCell id="1" parent="0" />
        <mxCell id="kyFPnOcUr0J71E4jhMjO-1" value="" style="group" vertex="1" connectable="0" parent="1">
          <mxGeometry x="60" y="-990" width="700" height="830" as="geometry" />
        </mxCell>
        <mxCell id="oZNGV0R-tvM4HhkcHF4H-4" style="edgeStyle=orthogonalEdgeStyle;rounded=0;orthogonalLoop=1;jettySize=auto;html=1;exitX=0.5;exitY=1;exitDx=0;exitDy=0;entryX=0.5;entryY=0;entryDx=0;entryDy=0;" parent="kyFPnOcUr0J71E4jhMjO-1" source="oZNGV0R-tvM4HhkcHF4H-1" target="oZNGV0R-tvM4HhkcHF4H-2" edge="1">
          <mxGeometry relative="1" as="geometry" />
        </mxCell>
        <mxCell id="oZNGV0R-tvM4HhkcHF4H-1" value="" style="ellipse;html=1;shape=endState;fillColor=#000000;strokeColor=#ff0000;" parent="kyFPnOcUr0J71E4jhMjO-1" vertex="1">
          <mxGeometry x="342.70833333333337" width="21.875" height="25.670103092783506" as="geometry" />
        </mxCell>
        <mxCell id="oZNGV0R-tvM4HhkcHF4H-5" style="edgeStyle=orthogonalEdgeStyle;rounded=0;orthogonalLoop=1;jettySize=auto;html=1;exitX=0.5;exitY=1;exitDx=0;exitDy=0;entryX=0.5;entryY=0;entryDx=0;entryDy=0;" parent="kyFPnOcUr0J71E4jhMjO-1" source="oZNGV0R-tvM4HhkcHF4H-2" target="oZNGV0R-tvM4HhkcHF4H-3" edge="1">
          <mxGeometry relative="1" as="geometry" />
        </mxCell>
        <mxCell id="oZNGV0R-tvM4HhkcHF4H-2" value="Registration" style="rounded=1;whiteSpace=wrap;html=1;" parent="kyFPnOcUr0J71E4jhMjO-1" vertex="1">
          <mxGeometry x="284.375" y="68.45360824742268" width="138.54166666666669" height="42.78350515463917" as="geometry" />
        </mxCell>
        <mxCell id="oZNGV0R-tvM4HhkcHF4H-8" style="edgeStyle=orthogonalEdgeStyle;rounded=0;orthogonalLoop=1;jettySize=auto;html=1;exitX=0;exitY=0.5;exitDx=0;exitDy=0;entryX=0.5;entryY=1;entryDx=0;entryDy=0;" parent="kyFPnOcUr0J71E4jhMjO-1" source="oZNGV0R-tvM4HhkcHF4H-3" target="oZNGV0R-tvM4HhkcHF4H-6" edge="1">
          <mxGeometry relative="1" as="geometry" />
        </mxCell>
        <mxCell id="oZNGV0R-tvM4HhkcHF4H-10" style="edgeStyle=orthogonalEdgeStyle;rounded=0;orthogonalLoop=1;jettySize=auto;html=1;exitX=0.5;exitY=1;exitDx=0;exitDy=0;" parent="kyFPnOcUr0J71E4jhMjO-1" source="oZNGV0R-tvM4HhkcHF4H-3" target="oZNGV0R-tvM4HhkcHF4H-9" edge="1">
          <mxGeometry relative="1" as="geometry" />
        </mxCell>
        <mxCell id="oZNGV0R-tvM4HhkcHF4H-3" value="Validate" style="rhombus;whiteSpace=wrap;html=1;" parent="kyFPnOcUr0J71E4jhMjO-1" vertex="1">
          <mxGeometry x="288.02083333333337" y="162.57731958762886" width="131.25" height="85.56701030927834" as="geometry" />
        </mxCell>
        <mxCell id="oZNGV0R-tvM4HhkcHF4H-7" style="edgeStyle=orthogonalEdgeStyle;rounded=0;orthogonalLoop=1;jettySize=auto;html=1;exitX=1;exitY=0.5;exitDx=0;exitDy=0;entryX=0;entryY=0.5;entryDx=0;entryDy=0;" parent="kyFPnOcUr0J71E4jhMjO-1" source="oZNGV0R-tvM4HhkcHF4H-6" target="oZNGV0R-tvM4HhkcHF4H-2" edge="1">
          <mxGeometry relative="1" as="geometry" />
        </mxCell>
        <mxCell id="oZNGV0R-tvM4HhkcHF4H-6" value="Re Enter Details" style="rounded=1;whiteSpace=wrap;html=1;" parent="kyFPnOcUr0J71E4jhMjO-1" vertex="1">
          <mxGeometry y="68.45360824742268" width="138.54166666666669" height="42.78350515463917" as="geometry" />
        </mxCell>
        <mxCell id="oZNGV0R-tvM4HhkcHF4H-12" style="edgeStyle=orthogonalEdgeStyle;rounded=0;orthogonalLoop=1;jettySize=auto;html=1;exitX=0.5;exitY=1;exitDx=0;exitDy=0;entryX=0.5;entryY=0;entryDx=0;entryDy=0;" parent="kyFPnOcUr0J71E4jhMjO-1" source="oZNGV0R-tvM4HhkcHF4H-9" target="oZNGV0R-tvM4HhkcHF4H-11" edge="1">
          <mxGeometry relative="1" as="geometry" />
        </mxCell>
        <mxCell id="oZNGV0R-tvM4HhkcHF4H-9" value="User Email" style="rounded=1;whiteSpace=wrap;html=1;" parent="kyFPnOcUr0J71E4jhMjO-1" vertex="1">
          <mxGeometry x="284.375" y="333.7113402061855" width="138.54166666666669" height="42.78350515463917" as="geometry" />
        </mxCell>
        <mxCell id="oZNGV0R-tvM4HhkcHF4H-14" style="edgeStyle=orthogonalEdgeStyle;rounded=0;orthogonalLoop=1;jettySize=auto;html=1;exitX=0.5;exitY=1;exitDx=0;exitDy=0;" parent="kyFPnOcUr0J71E4jhMjO-1" source="oZNGV0R-tvM4HhkcHF4H-11" target="oZNGV0R-tvM4HhkcHF4H-13" edge="1">
          <mxGeometry relative="1" as="geometry" />
        </mxCell>
        <mxCell id="oZNGV0R-tvM4HhkcHF4H-11" value="Password" style="rounded=1;whiteSpace=wrap;html=1;" parent="kyFPnOcUr0J71E4jhMjO-1" vertex="1">
          <mxGeometry x="284.375" y="427.83505154639175" width="138.54166666666669" height="42.78350515463917" as="geometry" />
        </mxCell>
        <mxCell id="oZNGV0R-tvM4HhkcHF4H-16" style="edgeStyle=orthogonalEdgeStyle;rounded=0;orthogonalLoop=1;jettySize=auto;html=1;exitX=1;exitY=0.5;exitDx=0;exitDy=0;" parent="kyFPnOcUr0J71E4jhMjO-1" source="oZNGV0R-tvM4HhkcHF4H-13" target="oZNGV0R-tvM4HhkcHF4H-15" edge="1">
          <mxGeometry relative="1" as="geometry" />
        </mxCell>
        <mxCell id="oZNGV0R-tvM4HhkcHF4H-18" style="edgeStyle=orthogonalEdgeStyle;rounded=0;orthogonalLoop=1;jettySize=auto;html=1;exitX=0.5;exitY=1;exitDx=0;exitDy=0;entryX=0.5;entryY=0;entryDx=0;entryDy=0;" parent="kyFPnOcUr0J71E4jhMjO-1" source="oZNGV0R-tvM4HhkcHF4H-13" target="oZNGV0R-tvM4HhkcHF4H-17" edge="1">
          <mxGeometry relative="1" as="geometry" />
        </mxCell>
        <mxCell id="oZNGV0R-tvM4HhkcHF4H-13" value="Validate ID&amp;nbsp;&lt;div&gt;&amp;amp;&lt;/div&gt;&lt;div&gt;&amp;nbsp;Password&lt;/div&gt;" style="rhombus;whiteSpace=wrap;html=1;" parent="kyFPnOcUr0J71E4jhMjO-1" vertex="1">
          <mxGeometry x="288.02083333333337" y="521.9587628865979" width="131.25" height="85.56701030927834" as="geometry" />
        </mxCell>
        <mxCell id="oZNGV0R-tvM4HhkcHF4H-27" style="edgeStyle=orthogonalEdgeStyle;rounded=0;orthogonalLoop=1;jettySize=auto;html=1;exitX=0;exitY=0.5;exitDx=0;exitDy=0;entryX=1;entryY=0.5;entryDx=0;entryDy=0;" parent="kyFPnOcUr0J71E4jhMjO-1" source="oZNGV0R-tvM4HhkcHF4H-15" target="oZNGV0R-tvM4HhkcHF4H-9" edge="1">
          <mxGeometry relative="1" as="geometry" />
        </mxCell>
        <mxCell id="oZNGV0R-tvM4HhkcHF4H-15" value="Re Enter ID &amp;amp; Password&lt;span style=&quot;color: rgba(0, 0, 0, 0); font-family: monospace; font-size: 0px; text-align: start; text-wrap: nowrap;&quot;&gt;%3CmxGraphModel%3E%3Croot%3E%3CmxCell%20id%3D%220%22%2F%3E%3CmxCell%20id%3D%221%22%20parent%3D%220%22%2F%3E%3CmxCell%20id%3D%222%22%20value%3D%22Password%22%20style%3D%22rounded%3D1%3BwhiteSpace%3Dwrap%3Bhtml%3D1%3B%22%20vertex%3D%221%22%20parent%3D%221%22%3E%3CmxGeometry%20x%3D%22370%22%20y%3D%22-600%22%20width%3D%22190%22%20height%3D%2250%22%20as%3D%22geometry%22%2F%3E%3C%2FmxCell%3E%3C%2Froot%3E%3C%2FmxGraphModel%3E&lt;/span&gt;" style="rounded=1;whiteSpace=wrap;html=1;" parent="kyFPnOcUr0J71E4jhMjO-1" vertex="1">
          <mxGeometry x="561.4583333333334" y="333.7113402061855" width="138.54166666666669" height="42.78350515463917" as="geometry" />
        </mxCell>
        <mxCell id="oZNGV0R-tvM4HhkcHF4H-20" style="edgeStyle=orthogonalEdgeStyle;rounded=0;orthogonalLoop=1;jettySize=auto;html=1;exitX=0.5;exitY=1;exitDx=0;exitDy=0;entryX=0.5;entryY=0;entryDx=0;entryDy=0;" parent="kyFPnOcUr0J71E4jhMjO-1" source="oZNGV0R-tvM4HhkcHF4H-17" target="oZNGV0R-tvM4HhkcHF4H-19" edge="1">
          <mxGeometry relative="1" as="geometry" />
        </mxCell>
        <mxCell id="oZNGV0R-tvM4HhkcHF4H-17" value="Re Enter ID &amp;amp; Password&lt;span style=&quot;color: rgba(0, 0, 0, 0); font-family: monospace; font-size: 0px; text-align: start; text-wrap: nowrap;&quot;&gt;%3CmxGraphModel%3E%3Croot%3E%3CmxCell%20id%3D%220%22%2F%3E%3CmxCell%20id%3D%221%22%20parent%3D%220%22%2F%3E%3CmxCell%20id%3D%222%22%20value%3D%22Password%22%20style%3D%22rounded%3D1%3BwhiteSpace%3Dwrap%3Bhtml%3D1%3B%22%20vertex%3D%221%22%20parent%3D%221%22%3E%3CmxGeometry%20x%3D%22370%22%20y%3D%22-600%22%20width%3D%22190%22%20height%3D%2250%22%20as%3D%22geometry%22%2F%3E%3C%2FmxCell%3E%3C%2Froot%3E%3C%2FmxGraphModel%3E&lt;/span&gt;" style="rounded=1;whiteSpace=wrap;html=1;" parent="kyFPnOcUr0J71E4jhMjO-1" vertex="1">
          <mxGeometry x="284.375" y="701.6494845360825" width="138.54166666666669" height="42.78350515463917" as="geometry" />
        </mxCell>
        <mxCell id="oZNGV0R-tvM4HhkcHF4H-19" value="" style="ellipse;html=1;shape=endState;fillColor=#000000;strokeColor=#ff0000;" parent="kyFPnOcUr0J71E4jhMjO-1" vertex="1">
          <mxGeometry x="342.70833333333337" y="804.3298969072165" width="21.875" height="25.670103092783506" as="geometry" />
        </mxCell>
        <mxCell id="oZNGV0R-tvM4HhkcHF4H-21" value="Start" style="text;html=1;align=center;verticalAlign=middle;whiteSpace=wrap;rounded=0;" parent="kyFPnOcUr0J71E4jhMjO-1" vertex="1">
          <mxGeometry x="364.58333333333337" width="43.75" height="25.670103092783506" as="geometry" />
        </mxCell>
        <mxCell id="oZNGV0R-tvM4HhkcHF4H-24" value="Invalid&lt;span style=&quot;color: rgba(0, 0, 0, 0); font-family: monospace; font-size: 0px; text-align: start; text-wrap: nowrap;&quot;&gt;%3CmxGraphModel%3E%3Croot%3E%3CmxCell%20id%3D%220%22%2F%3E%3CmxCell%20id%3D%221%22%20parent%3D%220%22%2F%3E%3CmxCell%20id%3D%222%22%20value%3D%22Start%22%20style%3D%22text%3Bhtml%3D1%3Balign%3Dcenter%3BverticalAlign%3Dmiddle%3BwhiteSpace%3Dwrap%3Brounded%3D0%3B%22%20vertex%3D%221%22%20parent%3D%221%22%3E%3CmxGeometry%20x%3D%22480%22%20y%3D%22-1100%22%20width%3D%2260%22%20height%3D%2230%22%20as%3D%22geometry%22%2F%3E%3C%2FmxCell%3E%3C%2Froot%3E%3C%2FmxGraphModel%3E&lt;/span&gt;" style="text;html=1;align=center;verticalAlign=middle;whiteSpace=wrap;rounded=0;" parent="kyFPnOcUr0J71E4jhMjO-1" vertex="1">
          <mxGeometry x="131.25" y="179.69072164948454" width="43.75" height="25.670103092783506" as="geometry" />
        </mxCell>
        <mxCell id="oZNGV0R-tvM4HhkcHF4H-25" value="Valid&lt;span style=&quot;color: rgba(0, 0, 0, 0); font-family: monospace; font-size: 0px; text-align: start; text-wrap: nowrap;&quot;&gt;%3CmxGraphModel%3E%3Croot%3E%3CmxCell%20id%3D%220%22%2F%3E%3CmxCell%20id%3D%221%22%20parent%3D%220%22%2F%3E%3CmxCell%20id%3D%222%22%20value%3D%22Start%22%20style%3D%22text%3Bhtml%3D1%3Balign%3Dcenter%3BverticalAlign%3Dmiddle%3BwhiteSpace%3Dwrap%3Brounded%3D0%3B%22%20vertex%3D%221%22%20parent%3D%221%22%3E%3CmxGeometry%20x%3D%22480%22%20y%3D%22-1100%22%20width%3D%2260%22%20height%3D%2230%22%20as%3D%22geometry%22%2F%3E%3C%2FmxCell%3E%3C%2Froot%3E%3C%2FmxGraphModel%3E&lt;/span&gt;" style="text;html=1;align=center;verticalAlign=middle;whiteSpace=wrap;rounded=0;" parent="kyFPnOcUr0J71E4jhMjO-1" vertex="1">
          <mxGeometry x="357.2916666666667" y="256.70103092783506" width="43.75" height="25.670103092783506" as="geometry" />
        </mxCell>
        <mxCell id="oZNGV0R-tvM4HhkcHF4H-26" value="Invalid&lt;span style=&quot;color: rgba(0, 0, 0, 0); font-family: monospace; font-size: 0px; text-align: start; text-wrap: nowrap;&quot;&gt;%3CmxGraphModel%3E%3Croot%3E%3CmxCell%20id%3D%220%22%2F%3E%3CmxCell%20id%3D%221%22%20parent%3D%220%22%2F%3E%3CmxCell%20id%3D%222%22%20value%3D%22Start%22%20style%3D%22text%3Bhtml%3D1%3Balign%3Dcenter%3BverticalAlign%3Dmiddle%3BwhiteSpace%3Dwrap%3Brounded%3D0%3B%22%20vertex%3D%221%22%20parent%3D%221%22%3E%3CmxGeometry%20x%3D%22480%22%20y%3D%22-1100%22%20width%3D%2260%22%20height%3D%2230%22%20as%3D%22geometry%22%2F%3E%3C%2FmxCell%3E%3C%2Froot%3E%3C%2FmxGraphModel%3E&lt;/span&gt;" style="text;html=1;align=center;verticalAlign=middle;whiteSpace=wrap;rounded=0;" parent="kyFPnOcUr0J71E4jhMjO-1" vertex="1">
          <mxGeometry x="495.83333333333337" y="530.5154639175258" width="43.75" height="25.670103092783506" as="geometry" />
        </mxCell>
        <mxCell id="oZNGV0R-tvM4HhkcHF4H-28" value="Valid&lt;span style=&quot;color: rgba(0, 0, 0, 0); font-family: monospace; font-size: 0px; text-align: start; text-wrap: nowrap;&quot;&gt;%3CmxGraphModel%3E%3Croot%3E%3CmxCell%20id%3D%220%22%2F%3E%3CmxCell%20id%3D%221%22%20parent%3D%220%22%2F%3E%3CmxCell%20id%3D%222%22%20value%3D%22Start%22%20style%3D%22text%3Bhtml%3D1%3Balign%3Dcenter%3BverticalAlign%3Dmiddle%3BwhiteSpace%3Dwrap%3Brounded%3D0%3B%22%20vertex%3D%221%22%20parent%3D%221%22%3E%3CmxGeometry%20x%3D%22480%22%20y%3D%22-1100%22%20width%3D%2260%22%20height%3D%2230%22%20as%3D%22geometry%22%2F%3E%3C%2FmxCell%3E%3C%2Froot%3E%3C%2FmxGraphModel%3E&lt;/span&gt;" style="text;html=1;align=center;verticalAlign=middle;whiteSpace=wrap;rounded=0;" parent="kyFPnOcUr0J71E4jhMjO-1" vertex="1">
          <mxGeometry x="350" y="616.0824742268042" width="43.75" height="25.670103092783506" as="geometry" />
        </mxCell>
        <mxCell id="oZNGV0R-tvM4HhkcHF4H-29" value="End" style="text;html=1;align=center;verticalAlign=middle;whiteSpace=wrap;rounded=0;" parent="kyFPnOcUr0J71E4jhMjO-1" vertex="1">
          <mxGeometry x="371.875" y="804.3298969072165" width="43.75" height="25.670103092783506" as="geometry" />
        </mxCell>
      </root>
    </mxGraphModel>
  </diagram>
</mxfile>
